<svg width="1542" height="1026" viewBox="0 0 1542 1026" fill="none" xmlns="http://www.w3.org/2000/svg">
<rect width="1542" height="1026" fill="#061492"/>
<g clip-path="url(#clip0_1203_128)">
<path d="M537.41 400.149C537.254 399.996 537.071 399.935 536.831 399.904C535.899 399.797 533.583 399.797 530.533 399.689C525.182 399.536 517.811 399.322 513.42 399.199C503.169 398.862 492.353 399.306 482.257 401.82C443.653 410.925 417.305 456.084 426.497 497.917C430.084 514.533 438.301 529.739 449.301 541.834C450.826 543.351 452.506 545.942 452.393 541.619C452.45 536.545 453.113 531.885 453.014 526.995C452.902 496.69 446.406 458.521 473.785 439.391C483.598 432.079 495.431 430.684 506.995 431.543C512.347 431.543 529.503 431.819 536.732 431.773C537.621 431.803 537.664 430.868 537.65 430.04C537.424 424.369 538.088 405.714 537.424 400.195L537.396 400.165L537.41 400.149Z" fill="white"/>
<path d="M498.606 450.258H526.04V484.335H475.354V480.546C475.354 463.817 485.77 450.24 498.606 450.24V450.258Z" fill="white"/>
<path d="M526.04 509.906H475.354V544H526.04V509.906Z" fill="white"/>
<path d="M566.904 521.056V542.823H557.367V504.877C557.367 490.169 561.075 485.168 573.792 485.168H583.858V496.347H574.056C568.758 496.347 566.904 498.994 566.904 505.76V510.172H603.197V521.056H566.904Z" fill="white"/>
<path d="M627.571 542.823C614.855 542.823 611.146 537.529 611.146 523.115V504.877C611.146 490.169 614.855 485.168 627.571 485.168H643.996C656.712 485.168 660.421 490.463 660.421 504.877V523.115C660.421 537.823 656.712 542.823 643.996 542.823H627.571ZM650.884 505.465C650.884 498.111 649.294 496.052 643.731 496.052H628.101C622.008 496.052 620.683 498.111 620.683 505.465V522.527C620.683 530.175 622.008 531.94 628.101 531.94H643.731C649.294 531.94 650.884 530.175 650.884 522.527V505.465Z" fill="white"/>
<path d="M705.456 542.823L680.289 521.938V543.118H670.752V485.168H704.662C716.583 485.168 721.616 488.698 721.616 502.524V506.642C721.616 520.173 716.318 523.409 704.662 523.409H696.979L722.146 543.118H705.456V542.823ZM711.814 503.112C711.814 496.935 710.225 495.758 703.867 495.758H680.289V513.407H703.867C709.96 513.407 711.814 512.525 711.814 506.054V503.112Z" fill="white"/>
<path d="M790.231 542.823V504.877L769.302 541.647C768.245 543.412 766.919 544 765.063 544C763.211 544 761.885 543.117 760.825 541.647L739.898 504.877V542.823H731.155V488.993C731.155 485.463 733.275 483.698 736.454 483.698C738.838 483.698 739.898 484.58 740.957 486.345L765.328 529.586L789.7 486.345C790.761 484.58 791.821 483.698 793.939 483.698C796.855 483.698 799.238 485.169 799.238 488.993V542.823H790.231Z" fill="white"/>
<path d="M808.508 542.823V531.939H841.092C844.539 531.939 845.861 531.057 845.861 526.939V523.703C845.861 520.173 844.539 518.702 841.092 518.702H820.694C811.159 518.702 808.508 513.996 808.508 503.994V501.053C808.508 489.287 811.951 484.874 820.694 484.874H833.94V495.758H821.489C818.576 495.758 817.25 496.935 817.25 501.641V503.406C817.25 506.936 818.311 508.407 821.489 508.407H841.622C851.16 508.407 854.604 512.525 854.604 523.115V527.821C854.604 538.705 851.16 542.823 841.622 542.823H808.508Z" fill="white"/>
<path d="M908.64 542.823C895.924 542.823 892.215 537.529 892.215 523.115V504.877C892.215 490.169 895.924 485.168 908.64 485.168H919.238V496.052H908.64C903.079 496.052 901.753 498.406 901.753 504.877V508.701H938.311V518.997H901.753V523.115C901.753 530.175 903.079 531.94 908.64 531.94H938.576V542.823H908.64Z" fill="white"/>
<path d="M991.83 529.586H962.159L956.068 542.823H944.939L969.841 489.287C971.432 486.051 973.288 483.698 976.996 483.698C980.97 483.698 982.557 486.051 984.148 489.287L1009.05 542.823H997.925L991.83 529.586ZM966.663 519.585H987.592L977.261 496.641L966.663 519.585Z" fill="white"/>
<path d="M1015.4 542.823V531.939H1047.98C1051.43 531.939 1052.75 531.057 1052.75 526.939V523.703C1052.75 520.173 1051.43 518.702 1047.98 518.702H1027.85C1018.32 518.702 1015.67 513.996 1015.67 503.994V501.053C1015.67 489.287 1019.11 484.874 1027.85 484.874H1041.1V495.758H1028.65C1025.73 495.758 1024.41 496.935 1024.41 501.641V503.406C1024.41 506.936 1025.47 508.407 1028.65 508.407H1048.78C1058.32 508.407 1061.76 512.525 1061.76 523.115V527.821C1061.76 538.705 1058.32 542.823 1048.78 542.823H1015.4Z" fill="white"/>
<path d="M1081.37 542.823V515.467L1056.2 484.874H1069.18L1086.4 505.465L1104.15 484.874H1116.34L1090.91 515.467V542.529H1081.37V542.823Z" fill="white"/>
</g>
<defs>
<clipPath id="clip0_1203_128">
<rect width="707" height="161" fill="white" transform="translate(417 383)"/>
</clipPath>
</defs>
</svg>
